<?xml version="1.0" encoding="utf-8"?>
<!-- Generator: Adobe Illustrator 16.0.0, SVG Export Plug-In . SVG Version: 6.00 Build 0)  -->
<!DOCTYPE svg PUBLIC "-//W3C//DTD SVG 1.1//EN" "http://www.w3.org/Graphics/SVG/1.1/DTD/svg11.dtd">
<svg version="1.1" id="icons" xmlns="http://www.w3.org/2000/svg" xmlns:xlink="http://www.w3.org/1999/xlink" x="0px" y="0px"
	 width="64px" height="64px" viewBox="0 0 64 64" enable-background="new 0 0 64 64" xml:space="preserve">
<g>
	<rect x="7.01" y="15.726" fill="#965353" width="41.98" height="12"/>
	<rect x="4.01" y="30.735" fill="#965353" width="48" height="12.02"/>
	<rect x="54.99" y="51.755" fill="#545C66" width="8.01" height="3"/>
	<polygon fill="#656D78" points="63,54.755 63,56.755 61.999,57.755 52.988,57.755 54.99,54.755 	"/>
	<rect x="54.99" y="48.755" fill="#656D78" width="8.01" height="3"/>
	<rect x="51.99" y="30.755" fill="#656D78" width="11.01" height="3"/>
	<polygon fill="#545C66" points="51.99,33.755 63,33.755 63,36.755 52,36.755 51.99,36.755 	"/>
	<polygon fill="#545C66" points="63,27.755 63,30.755 51.99,30.755 51.99,30.735 49.02,27.755 	"/>
	<polygon fill="#656D78" points="49,24.745 61.999,24.745 63,25.745 63,27.755 49.02,27.755 49,27.735 43,27.735 43,27.726 
		48.99,27.726 48.99,24.745 	"/>
	<polygon fill="#545C66" points="63,45.755 63,48.755 54.99,48.755 54.99,45.755 55,45.755 	"/>
	<polygon fill="#656D78" points="63,42.755 63,45.755 55,45.755 55,45.745 52.01,42.755 	"/>
	<path fill="#A0D468" d="M24,24.745c1.64,0,2.99,1.33,3,2.98h-6C21.01,26.075,22.35,24.745,24,24.745z"/>
	<polygon fill="#844747" points="17,12.715 23,12.715 25,12.715 31,12.715 33,12.715 39,12.715 45.99,12.715 48.99,15.715 
		48.99,15.726 7.01,15.726 7.01,15.715 10,12.715 10.01,12.715 	"/>
	<path fill="#5D9CEC" d="M44,39.745c1.66,0,2.99,1.34,3,2.99h-6C41.01,41.085,42.34,39.745,44,39.745z"/>
	<polygon fill="#656D78" points="52,36.755 63,36.755 63,39.755 51.99,39.755 51.99,36.755 	"/>
	<path fill="#ED5565" d="M28,9.745c1.65,0,2.98,1.32,3,2.97h-6C25.02,11.065,26.35,9.745,28,9.745z"/>
	<path fill="#FFCE54" d="M16,24.745c1.64,0,2.99,1.33,3,2.98h-6C13.01,26.075,14.35,24.745,16,24.745z"/>
	<path fill="#5D9CEC" d="M23,12.715h-6c0.02-1.649,1.35-2.97,3-2.97S22.98,11.065,23,12.715z"/>
	<rect x="13" y="27.726" width="6" height="0.01"/>
	<path fill="#A0D468" d="M36,39.745c1.66,0,2.99,1.34,3,2.99h-6C33.01,41.085,34.34,39.745,36,39.745z"/>
	<path fill="#FFCE54" d="M36,9.745c1.65,0,2.98,1.32,3,2.97h-6C33.02,11.065,34.35,9.745,36,9.745z"/>
	<path fill="#5D9CEC" d="M23,42.735h-6c0.01-1.65,1.34-2.99,3-2.99S22.99,41.085,23,42.735z"/>
	<path fill="#ED5565" d="M28,39.745c1.66,0,2.99,1.34,3,2.99h-6C25.01,41.085,26.34,39.745,28,39.745z"/>
	<path fill="#FFCE54" d="M32,24.745c1.64,0,2.99,1.33,3,2.98h-6C29.01,26.075,30.35,24.745,32,24.745z"/>
	<polygon fill="#545C66" points="63,39.755 63,42.755 52.01,42.755 52,42.745 47,42.745 47,42.735 51.99,42.735 51.99,39.755 	"/>
	<path fill="#A0D468" d="M43,27.726h-6c0.01-1.65,1.35-2.98,3-2.98C41.64,24.745,42.99,26.075,43,27.726z"/>
	<polygon fill="#844747" points="13,27.735 19,27.735 21,27.735 27,27.735 29,27.735 35,27.735 37,27.735 43,27.735 49,27.735 
		49.02,27.755 51.99,30.735 4.01,30.735 7,27.735 7.01,27.735 	"/>
	<polygon fill="#844747" points="17,42.745 23,42.745 25,42.745 31,42.745 33,42.745 39,42.745 41,42.745 47,42.745 52,42.745 
		52.01,42.755 55,45.745 55,45.755 54.99,45.755 1,45.755 1,45.745 4,42.745 9,42.745 15,42.745 	"/>
	<path fill="#ED5565" d="M12,39.745c1.66,0,2.99,1.34,3,2.99H9C9.01,41.085,10.34,39.745,12,39.745z"/>
	<polygon fill="#965353" points="53.999,57.755 1.999,57.755 1,56.755 1,45.755 54.99,45.755 54.99,48.755 54.99,51.755 
		54.99,54.755 54.99,56.755 	"/>
	<g>
		<path fill="#EAC6BB" d="M30,8.245c0,1.101-0.9,2-2,2s-2-0.899-2-2c0-1.109,0.9-2,2-2S30,7.136,30,8.245z"/>
		<path fill="#EAC6BB" d="M18,23.245c0,1.101-0.9,2-2,2c-1.11,0-2-0.899-2-2c0-1.1,0.89-2,2-2C17.1,21.245,18,22.146,18,23.245z"/>
		<path fill="#EAC6BB" d="M22,8.245c0,1.101-0.9,2-2,2s-2-0.899-2-2c0-1.109,0.9-2,2-2S22,7.136,22,8.245z"/>
		<path fill="#EAC6BB" d="M30,38.245c0,1.11-0.9,2-2,2s-2-0.89-2-2c0-1.1,0.9-2,2-2S30,37.146,30,38.245z"/>
		<path fill="#EAC6BB" d="M34,23.245c0,1.101-0.9,2-2,2c-1.11,0-2-0.899-2-2c0-1.1,0.89-2,2-2C33.1,21.245,34,22.146,34,23.245z"/>
		<path fill="#EAC6BB" d="M26,23.245c0,1.101-0.9,2-2,2c-1.11,0-2-0.899-2-2c0-1.1,0.89-2,2-2C25.1,21.245,26,22.146,26,23.245z"/>
		<path fill="#EAC6BB" d="M38,38.245c0,1.11-0.9,2-2,2s-2-0.89-2-2c0-1.1,0.9-2,2-2S38,37.146,38,38.245z"/>
		<path fill="#EAC6BB" d="M22,38.245c0,1.11-0.9,2-2,2s-2-0.89-2-2c0-1.1,0.9-2,2-2S22,37.146,22,38.245z"/>
		<path fill="#EAC6BB" d="M46,38.245c0,1.11-0.9,2-2,2s-2-0.89-2-2c0-1.1,0.9-2,2-2S46,37.146,46,38.245z"/>
		<path fill="#EAC6BB" d="M38,8.245c0,1.101-0.9,2-2,2s-2-0.899-2-2c0-1.109,0.9-2,2-2S38,7.136,38,8.245z"/>
		<path fill="#EAC6BB" d="M42,23.245c0,1.101-0.9,2-2,2c-1.11,0-2-0.899-2-2c0-1.1,0.89-2,2-2C41.1,21.245,42,22.146,42,23.245z"/>
		<path fill="#EAC6BB" d="M14,38.245c0,1.11-0.9,2-2,2s-2-0.89-2-2c0-1.1,0.9-2,2-2S14,37.146,14,38.245z"/>
	</g>
	<circle fill="#965353" cx="2" cy="56.755" r="1"/>
	<circle fill="#965353" cx="54" cy="56.755" r="1"/>
	<circle fill="#656D78" cx="62" cy="56.755" r="1"/>
	<circle fill="#656D78" cx="62" cy="25.745" r="1"/>
</g>
</svg>
