<?xml version="1.0" encoding="utf-8"?>
<!-- Generator: Adobe Illustrator 16.0.0, SVG Export Plug-In . SVG Version: 6.00 Build 0)  -->
<!DOCTYPE svg PUBLIC "-//W3C//DTD SVG 1.1//EN" "http://www.w3.org/Graphics/SVG/1.1/DTD/svg11.dtd">
<svg version="1.1" id="icons" xmlns="http://www.w3.org/2000/svg" xmlns:xlink="http://www.w3.org/1999/xlink" x="0px" y="0px"
	 width="64px" height="64px" viewBox="0 0 64 64" enable-background="new 0 0 64 64" xml:space="preserve">
<g>
	<path fill="#CCD1D9" d="M52,54.99h10c0,2.76-2.24,5-5,5S52,57.75,52,54.99z"/>
	<path fill="#E6E9ED" d="M54,59.99H42v-4.529v-0.01c1.2-0.691,2-1.98,2-3.461c0-2.209-1.79-4-4-4s-4,1.791-4,4
		c0,1.48,0.8,2.77,2,3.461v0.01v4.529H20c-2.76,0-5-2.24-5-5V6h27c0-2.24,1.47-4.139,3.5-4.779C47.52,1.861,49,3.75,49,6v48.99
		C49,57.75,51.24,59.99,54,59.99z M44,18v-3H20v3H44z"/>
	<path fill="#DA4453" d="M40,55.99c0.73,0,1.41-0.199,2-0.539v0.01v4.529V62l-2-1l-2,1v-2.01v-4.529v-0.01
		C38.59,55.791,39.27,55.99,40,55.99z"/>
	<path fill="#F5F7FA" d="M7,1h40c-0.52,0-1.02,0.08-1.5,0.221C43.47,1.861,42,3.76,42,6H15h-3H2C2,3.24,4.24,1,7,1z"/>
	<path fill="#FFCE54" d="M52,54.99c0,2.76,2.24,5,5,5h-3c-2.76,0-5-2.24-5-5V6c0-2.25-1.48-4.139-3.5-4.779C45.98,1.08,46.48,1,47,1
		c2.76,0,5,2.24,5,5V54.99z"/>
	<path fill="#FFCE54" d="M15,54.99c0,2.76,2.24,5,5,5h-3c-2.76,0-5-2.24-5-5V6h3V54.99z"/>
	<path fill="#CCD1D9" d="M44,36.99H20c-0.553,0-1-0.447-1-1s0.447-1,1-1h24c0.553,0,1,0.447,1,1S44.553,36.99,44,36.99z"/>
	<path fill="#CCD1D9" d="M44,32.998H20c-0.553,0-1-0.447-1-1s0.447-1,1-1h24c0.553,0,1,0.447,1,1S44.553,32.998,44,32.998z"/>
	<path fill="#CCD1D9" d="M44,40.99H20c-0.553,0-1-0.447-1-1s0.447-1,1-1h24c0.553,0,1,0.447,1,1S44.553,40.99,44,40.99z"/>
	<path fill="#CCD1D9" d="M30.995,44.99H19.992c-0.553,0-1-0.447-1-1s0.447-1,1-1h11.003c0.553,0,1,0.447,1,1
		S31.548,44.99,30.995,44.99z"/>
	<g>
		<rect x="20" y="16.002" fill="#656D78" width="24" height="1.998"/>
		<path fill="#656D78" d="M44.001,19.004H20c-0.553,0-1-0.447-1-1v-1.998c0-0.553,0.447-1,1-1h24.001c0.553,0,1,0.447,1,1v1.998
			C45.001,18.557,44.554,19.004,44.001,19.004z M21,17.004h22.001v0.002H21V17.004z"/>
	</g>
	<path fill="#CCD1D9" d="M27.031,26c-0.553,0-1.005-0.447-1.005-1s0.442-1,0.994-1h0.011c0.552,0,1,0.447,1,1S27.583,26,27.031,26z"
		/>
	<path fill="#CCD1D9" d="M32.031,26c-0.553,0-1.005-0.447-1.005-1s0.442-1,0.994-1h0.011c0.552,0,1,0.447,1,1S32.583,26,32.031,26z"
		/>
	<path fill="#CCD1D9" d="M37.036,26c-0.553,0-1.005-0.447-1.005-1s0.442-1,0.994-1h0.011c0.552,0,1,0.447,1,1S37.588,26,37.036,26z"
		/>
	<path fill="#DA4453" d="M38,63c-0.553,0-1-0.447-1-1v-6.541c0-0.553,0.447-1,1-1s1,0.447,1,1V62C39,62.553,38.553,63,38,63z"/>
	<path fill="#DA4453" d="M42.003,63c-0.553,0-1-0.447-1-1v-6.541c0-0.553,0.447-1,1-1s1,0.447,1,1V62
		C43.003,62.553,42.556,63,42.003,63z"/>
	<path fill="#DA4453" d="M38.001,63c-0.367,0-0.72-0.203-0.896-0.553c-0.247-0.494-0.047-1.094,0.446-1.342l2-1.002
		c0.497-0.246,1.095-0.047,1.343,0.445c0.247,0.494,0.047,1.096-0.446,1.344l-2,1.002C38.304,62.965,38.151,63,38.001,63z"/>
	<path fill="#DA4453" d="M42.002,63c-0.15,0-0.303-0.035-0.446-0.105l-2.003-1.002c-0.494-0.248-0.694-0.848-0.447-1.342
		c0.248-0.494,0.848-0.693,1.342-0.447l2.003,1.002c0.494,0.246,0.694,0.848,0.447,1.342C42.722,62.797,42.369,63,42.002,63z"/>
	<path fill="#ED5565" d="M40,48.992c2.21,0,4,1.789,4,4c0,1.479-0.8,2.77-2,3.459c-0.59,0.34-1.27,0.541-2,0.541
		s-1.41-0.201-2-0.541c-1.2-0.689-2-1.98-2-3.459C36,50.781,37.79,48.992,40,48.992z"/>
	<path fill="#DA4453" d="M40.033,53.998c-0.553,0-1.005-0.447-1.005-1s0.442-1,0.994-1h0.011c0.552,0,1,0.447,1,1
		S40.585,53.998,40.033,53.998z"/>
	<path fill="#ED5565" d="M40.001,57.998c-2.757,0-5-2.244-5-5c0-2.758,2.243-5,5-5s5,2.242,5,5
		C45.001,55.754,42.758,57.998,40.001,57.998z M40.001,49.998c-1.654,0-3,1.346-3,3s1.346,3,3,3s3-1.346,3-3
		S41.655,49.998,40.001,49.998z"/>
</g>
</svg>
