<svg width="64" height="40" viewBox="0 0 64 64" fill="none" xmlns="http://www.w3.org/2000/svg">
<path fill-rule="evenodd" clip-rule="evenodd" d="M56 64H45.0001C42.2384 64 40.0003 61.7598 40.0003 59V45.0001C40.0003 42.2384 42.2384 40.0003 45.0001 40.0003H46.6154C47.6554 40.0003 48.7209 39.1683 48.9981 38.1214L50.0586 34.1273C50.3691 32.9632 49.7071 31.9994 48.5771 31.9994H45C42.2383 31.9994 40.0001 29.7616 40.0001 27.0009V25.0009C40.0001 22.2381 42.2383 20 45 20H48.001C49.1035 20 50.001 19.1055 50.001 18V13.9995C50.001 12.896 49.1035 11.999 48.001 11.999H42C36.4766 11.999 32.0011 16.4775 32.0011 22.0004V27.0009C32.0011 29.7615 29.7609 31.9994 27.0007 31.9994H26.0476C24.9177 31.9994 24.0002 32.9632 24.0002 34.1273V38.1214C24.0002 39.1683 24.8435 40.0003 25.884 40.0003H27.0007C29.761 40.0003 32.0011 42.2384 32.0011 45.0001V59C32.0011 61.7598 29.7609 64 27.0007 64H26.0007C24.8953 64 24.0002 63.1035 24.0002 62C24.0002 60.8945 24.8953 60 26.0007 60C27.1038 60 28.0007 59.1035 28.0007 58V46.0001C28.0007 44.8946 27.1039 44.0001 26.0007 44.0001H24.6887C22.0989 44.0001 19.9999 41.9279 19.9999 39.303V33.3128C19.9999 30.4183 22.2962 27.9988 25.1283 27.9988H26.0007C27.1038 27.9988 28.0007 27.1038 28.0007 26.0007V21.0002C28.0007 13.8201 33.8206 8.00088 41.0001 8.00088H49.0011C51.7619 8.00088 53.9991 10.2386 53.9991 12.9994V18.9999C53.9991 21.7605 51.7619 24.0002 49.0011 24.0002H46.0001H44.0001V26.0007C44.0001 27.1038 44.8946 27.9988 46.0001 27.9988H49.7463C52.5802 27.9988 54.421 30.4181 53.879 33.3128L52.755 39.303C52.2638 41.9279 49.7775 44.0001 47.1876 44.0001H46.0001C44.8946 44.0001 44.0001 44.8946 44.0001 46.0001V58C44.0001 59.1035 44.8946 60 46.0001 60H56C58.209 60 60 58.209 60 56V8.00088C60 5.78988 58.209 4.0005 56 4.0005H8.00088C5.79188 4.0005 4.0005 5.79 4.0005 8.00088V56C4.0005 58.209 5.792 60 8.00088 60H10.0009C11.1044 60 12.0013 60.8945 12.0013 62C12.0013 63.1035 11.1044 64 10.0009 64H8.00088C3.5835 64 0 60.418 0 56V8.00088C0 3.581 3.5835 0 8.00088 0H56C60.4199 0 64 3.581 64 8.00088V56C64 60.418 60.4199 64 56 64ZM17.9999 60C19.1054 60 19.9999 60.8945 19.9999 62C19.9999 63.1035 19.1054 64 17.9999 64C16.8964 64 15.9994 63.1035 15.9994 62C15.9994 60.8945 16.8964 60 17.9999 60Z" fill="#3B5998"/>
</svg>
