<svg width="64" height="40" viewBox="0 0 64 64" fill="none" xmlns="http://www.w3.org/2000/svg">
<path fill-rule="evenodd" clip-rule="evenodd" d="M21.986 40.006C23.088 40.006 23.979 40.899 23.979 41.999C23.979 43.099 23.087 43.991 21.986 43.991C20.886 43.991 19.994 43.099 19.994 41.999C19.994 40.899 20.887 40.006 21.986 40.006ZM16.145 34.299C14.884 25.55 20.955 17.437 29.704 16.176C38.453 14.915 46.567 20.986 47.828 29.735C49.089 38.484 43.018 46.598 34.269 47.859C34.171 47.874 34.077 47.874 33.98 47.885L34.276 47.844C33.182 48.001 32.17 47.242 32.011 46.149C31.854 45.056 32.613 44.041 33.706 43.882L33.703 43.875C33.706 43.875 33.708 43.875 33.711 43.875C40.271 42.93 44.82 36.847 43.875 30.287C42.93 23.726 36.848 19.177 30.287 20.122C23.73 21.067 19.177 27.15 20.123 33.71C20.123 33.713 20.123 33.715 20.125 33.715L20.118 33.718C20.275 34.811 19.516 35.824 18.423 35.982C17.33 36.139 16.315 35.381 16.156 34.288L16.2 34.586C16.186 34.488 16.159 34.396 16.145 34.299ZM47.989 13.005C47.989 11.347 49.335 10.001 50.995 10.001C52.637 10.001 53.968 11.319 53.994 12.959V13.053C53.968 14.693 52.637 16.011 50.995 16.011C49.335 16.011 47.989 14.665 47.989 13.005ZM58.661 58.52C55.183 62.034 50.357 64 42.012 64H21.986C13.641 64 8.816 62.034 5.34 58.52C1.908 55.054 0 50.216 0 42.014V21.988C0 13.783 1.908 8.948 5.34 5.482C8.816 1.967 13.641 0 21.986 0H42.011C50.357 0 55.182 1.967 58.66 5.482C58.883 5.705 59.087 5.95 59.293 6.192C59.715 6.558 59.988 7.094 59.988 7.697C59.988 8.802 59.093 9.697 57.988 9.697C57.384 9.697 56.848 9.423 56.482 8.999L56.456 9.02C56.25 8.775 56.057 8.521 55.829 8.292C52.787 5.216 48.296 4.009 40.992 4.009H22.997C15.695 4.009 11.213 5.216 8.171 8.292C5.168 11.325 4 15.828 4 23.005V41.002C4 48.182 5.168 52.673 8.171 55.705C11.213 58.78 15.695 60 22.997 60H40.994C48.298 60 52.789 58.78 55.831 55.705C58.834 52.673 59.99 48.182 59.99 41.002V23.006C59.99 21.258 59.918 19.673 59.772 18.226L59.781 18.224C59.673 17.121 60.472 16.135 61.577 16.018C62.684 15.904 63.677 16.708 63.79 17.813C63.793 17.842 63.79 17.869 63.79 17.898H63.795C63.916 19.172 64 20.507 64 21.988V42.013C64 50.216 62.09 55.054 58.661 58.52Z" fill="white"/>
</svg>
