<svg width="64" height="40" viewBox="0 0 64 64" fill="none" xmlns="http://www.w3.org/2000/svg">
<path fill-rule="evenodd" clip-rule="evenodd" d="M59 60H49.0011C46.5793 60 44.5607 58.2803 44.0998 55.995C44.0656 55.995 44.0344 55.9999 44.0001 55.9999V37.9006C44.0001 35.7454 42.2091 34.0011 40.0003 34.0011C37.7913 34.0011 36.0003 35.7454 36.0003 37.9006V54.9481V55.0019C36.0003 56.2216 35.5443 57.3203 34.8205 58.1904C34.423 58.792 33.7444 59.1885 32.9699 59.1885C31.7434 59.1885 30.7501 58.1952 30.7501 56.9686C30.7501 56.3201 31.0324 55.7421 31.4786 55.3359C31.8019 54.9794 32.0011 54.5175 32.0011 54.0018V51.1424V47.025V37.7141C32.0011 33.4543 35.5821 30 40.0001 30C44.418 30 48.001 33.4543 48.001 37.7141V51.1424C48.001 51.2859 47.9874 51.41 47.9785 51.5418C47.9854 51.5398 47.9941 51.5398 48.001 51.5369V54.0018C48.001 55.1054 48.8955 55.9999 50.001 55.9999H58C59.1055 55.9999 60 55.1054 60 54.0018V36.0013C60 35.8509 59.9824 35.7073 59.9511 35.5665C59.4375 26.8808 52.5021 19.9988 44.0001 19.9988C40.4709 19.9988 37.221 21.196 34.5804 23.2059C34.5706 23.201 34.5599 23.203 34.5394 23.2186C34.2709 23.4345 33.932 23.5624 33.5629 23.5624C32.6986 23.5624 32.0014 22.8621 32.0014 21.9989C32.0014 21.8915 31.995 21.8358 31.9837 21.8201C31.8915 20.8015 31.0438 19.9988 30.0014 19.9988H24.0005C21.792 19.9988 20.0001 21.7907 20.0001 23.9999V54.0018C20.0001 54.1815 20.0319 54.3544 20.0763 54.5195C20.0294 54.663 20.0001 54.8223 20.0001 55.0019C20.0001 57.7626 17.7624 60 14.9996 60H14.6339H5.00037C2.24025 60 0 57.7626 0 55.0019V20.9988C0 18.238 2.24025 16.0006 5.00037 16.0006H10.0009C13.3129 16.0006 15.9994 13.314 15.9994 9.99938C15.9994 6.68488 13.3129 3.99825 10.0009 3.99825C6.68688 3.99825 4.0005 6.68488 4.0005 9.99938C4.0005 11.1049 3.106 11.9994 2 11.9994C0.897 11.9994 0 11.1049 0 9.99938C0 4.47575 4.478 0 10.0009 0C15.5243 0 19.9999 4.47575 19.9999 9.99938C19.9999 10.5063 19.9505 10.9994 19.8769 11.4867C19.8608 11.5805 19.852 11.6771 19.8339 11.7709C19.7465 12.2572 19.6279 12.7358 19.4706 13.1947C19.4643 13.2172 19.453 13.2378 19.4463 13.2601C19.101 14.2534 18.6099 15.1733 17.9888 15.9985C16.1655 18.4224 13.2705 19.9986 10.001 19.9986H6.00037C4.89487 19.9986 4.00037 20.8961 4.00037 21.9986V54.0015C4.00037 55.1051 4.89487 55.9996 6.00037 55.9996H16.1004C16.0354 55.6764 15.9993 55.3444 15.9993 55.0016V23.9999C15.9993 19.5817 19.5828 16.0006 24.0001 16.0006H31.001C32.2364 16.0006 33.3594 16.4557 34.2305 17.2027C34.2412 17.2096 34.252 17.1979 34.2637 17.2066C34.6134 17.5074 35.0665 17.6871 35.5626 17.6871C35.8361 17.6871 36.0959 17.6334 36.3311 17.5338C36.4024 17.5025 36.4454 17.5074 36.4864 17.5123C38.8086 16.5611 41.3339 16.0005 43.9999 16.0005C54.3671 16.0005 62.8904 23.8894 63.8991 33.9894C63.9665 34.3146 63.9997 34.6554 63.9997 35.0011V55.0019C64 57.7626 61.7627 60 59 60ZM26.0007 55.9999C27.1038 55.9999 28.0007 56.8964 28.0007 57.9999C28.0007 59.1055 27.1039 60 26.0007 60C24.8953 60 24.0002 59.1055 24.0002 57.9999C24.0002 56.8964 24.8954 55.9999 26.0007 55.9999Z" fill="#469EC8"/>
</svg>
